# generated from PmQm by Jehee Lee
:FULLY-SPECIFIED
:DEGREES
269
root 84.96940502 39.52645185 35.24104643 -4.028580729 -70.64401457 4.681803535
RightUpLeg -28.05640428 -2.881077201 -0.4147874331
RightLeg 45.07151734 4.994423519 -2.947752701
RightFoot -2.057531781 15.15334058 -2.258713012
RightToes 2.32829e-010 -1.59028e-015 9.93923e-017
Spine -6.845519161 -4.022498645 -8.720262644
Spine1 10.81351879 -4.81636505 2.402248215
HEad -8.700458735 3.742787612 1.490087455
LeftShoulder1 9.93923e-017 0 1.22299e-017
LeftArm 30.01286693 20.50987836 -77.73300493
LeftForeArm -49.90317989 -28.37589464 18.07386607
LeftHand 0.874162 5.96507 -3.53657
RightShoulder 1.98785e-016 -4.96962e-017 1.55301e-017
RightArm 28.9357223 -58.30468862 81.8964138
RightForeArm -44.13277519 19.34946355 -8.402974779
RightHand 1.06596 -10.3388 -3.23031
LeftUpLeg -4.703897306 0.9589403429 5.471348946
LeftLeg 16.71389815 0 0
LeftFoot -8.47336481 5.440006882 -10.67206373
LeftToes 8.82235e-011 9.04645e-011 1.87288e-011
270
root 83.61779499 39.4131 35.40574669 -3.949238825 -71.34837151 4.571395948
RightUpLeg -29.19512769 -3.955267448 0.1735042175
RightLeg 36.05024229 5.23022918 -2.143520904
RightFoot -1.265614722 12.51484318 -0.6280128495
RightToes 2.32829e-010 -1.59028e-015 9.93923e-017
Spine -6.99225 -4.80394 -9.49489
Spine1 10.8103 -5.72047 3.70045
HEad -8.50494 4.3499 1.50706
LeftShoulder1 9.93923e-017 0 1.22299e-017
LeftArm 29.324 17.2202 -77.0933
LeftForeArm -48.1612 -29.8036 18.6995
LeftHand 0.872868 5.99207 -3.07255
RightShoulder 1.98785e-016 -4.96962e-017 1.55301e-017
RightArm 28.776 -60.6454 79.5323
RightForeArm -43.3166 19.3197 -8.73957
RightHand 1.06334 -10.2749 -3.3763
LeftUpLeg -2.070301994 0.4951428439 6.024039653
LeftLeg 16.03663965 0 0
LeftFoot -9.654028274 6.390552816 -11.13238566
LeftToes 8.82235e-011 9.04645e-011 1.87288e-011
271
root 82.21623261 39.2327 35.50817874 -4.121957632 -72.39980763 4.864060148
RightUpLeg -29.53306298 -3.662822886 0.43483722
RightLeg 25.44634723 4.552079152 -1.57115198
RightFoot 0.2093081905 10.09585858 0.8425717548
RightToes 2.32829e-010 -1.59028e-015 9.93923e-017
Spine -7.65058 -5.2852 -9.75784
Spine1 11.3122 -6.21112 4.32768
HEad -8.52028 4.71785 1.51934
LeftShoulder1 9.93923e-017 0 1.22299e-017
LeftArm 29.4603 14.1658 -76.6241
LeftForeArm -47.981 -30.6495 19.0576
LeftHand 0.885736 6.13897 -2.34913
RightShoulder 1.98785e-016 -4.96962e-017 1.55301e-017
RightArm 27.6383 -62.1936 77.3537
RightForeArm -41.7608 19.1113 -8.25781
RightHand 1.03651 -10.1069 -3.19424
LeftUpLeg 0.41979951 -0.1348194398 6.466570752
LeftLeg 15.64921622 0 0
LeftFoot -10.76993403 7.865029105 -11.50560351
LeftToes 8.82235e-011 9.04645e-011 1.87288e-011
272
root 80.77447302 39.0802 35.61603503 -3.726772363 -73.45197967 4.65443126
RightUpLeg -28.79059318 -0.9305404614 -0.2725320473
RightLeg 13.39847453 2.04279516 -0.4997566459
RightFoot 1.869058921 7.862388965 1.789044094
RightToes 2.32829e-010 -1.59028e-015 9.93923e-017
Spine -8.6081 -5.6719 -9.68894
Spine1 12.1741 -6.65675 4.99614
HEad -8.60171 4.91217 1.54686
LeftShoulder1 9.93923e-017 0 1.22299e-017
LeftArm 29.7915 11.8395 -76.3575
LeftForeArm -47.9949 -30.8542 19.1422
LeftHand 0.888198 6.19945 -2.12654
RightShoulder 1.98785e-016 -4.96962e-017 1.55301e-017
RightArm 26.0322 -63.0557 75.5544
RightForeArm -39.6685 18.7275 -7.09118
RightHand 1.04538 -10.2148 -3.06739
LeftUpLeg 3.503058531 -0.5580297707 6.933511308
LeftLeg 13.95579559 0 0
LeftFoot -11.24571837 9.135418712 -12.63240756
LeftToes 8.82235e-011 9.04645e-011 1.87288e-011
